Stretch Light Narrow Cy Sc FullChartSet vv(14.4-0.0)-(84.5-100.0)-0.0-0.0-(0.0-0.0).ufo
<glyph name="abreve-cy.sc" format="1">
  <advance width="1134"/>
  <outline>
    <contour>
      <point x="361" y="1856" type="curve" smooth="yes"/>
      <point x="248" y="1856" type="line"/>
      <point x="248" y="1844"/>
      <point x="246" y="1832"/>
      <point x="246" y="1822" type="curve" smooth="yes"/>
      <point x="246" y="1616"/>
      <point x="360" y="1464"/>
      <point x="564" y="1464" type="curve" smooth="yes"/>
      <point x="771" y="1464"/>
      <point x="878" y="1614"/>
      <point x="878" y="1822" type="curve" smooth="yes"/>
      <point x="878" y="1832"/>
      <point x="877" y="1844"/>
      <point x="877" y="1856" type="curve"/>
      <point x="764" y="1856" type="line" smooth="yes"/>
      <point x="741" y="1856"/>
      <point x="738" y="1822"/>
      <point x="738" y="1788" type="curve" smooth="yes"/>
      <point x="738" y="1682"/>
      <point x="697" y="1560"/>
      <point x="565" y="1560" type="curve" smooth="yes"/>
      <point x="431" y="1560"/>
      <point x="387" y="1682"/>
      <point x="387" y="1788" type="curve" smooth="yes"/>
      <point x="387" y="1822"/>
      <point x="383" y="1856"/>
    </contour>
    <contour>
      <point x="88" y="98" type="line"/>
      <point x="-14" y="80" type="line"/>
      <point x="-14" y="0" type="line"/>
      <point x="365" y="0" type="line"/>
      <point x="365" y="80" type="line"/>
      <point x="224" y="98" type="line"/>
      <point x="304" y="364" type="line"/>
      <point x="786" y="364" type="line"/>
      <point x="866" y="96" type="line"/>
      <point x="728" y="80" type="line"/>
      <point x="728" y="0" type="line"/>
      <point x="1148" y="0" type="line"/>
      <point x="1148" y="80" type="line"/>
      <point x="1045" y="96" type="line"/>
      <point x="651" y="1304" type="line"/>
      <point x="487" y="1304" type="line"/>
    </contour>
    <contour>
      <point x="757" y="460" type="line"/>
      <point x="333" y="460" type="line"/>
      <point x="505" y="1026" type="line"/>
      <point x="546" y="1190" type="line"/>
      <point x="585" y="1030" type="line"/>
    </contour>
  </outline>
</glyph>
<glyph name="adieresis-cy.sc" format="1">
  <advance width="1134"/>
  <outline>
    <contour>
      <point x="740" y="1486" type="curve"/>
      <point x="817" y="1486"/>
      <point x="851" y="1546"/>
      <point x="851" y="1616" type="curve" smooth="yes"/>
      <point x="851" y="1674"/>
      <point x="818" y="1732"/>
      <point x="756" y="1732" type="curve" smooth="yes"/>
      <point x="685" y="1732"/>
      <point x="650" y="1666"/>
      <point x="650" y="1600" type="curve" smooth="yes"/>
      <point x="650" y="1536"/>
      <point x="685" y="1486"/>
    </contour>
    <contour>
      <point x="366" y="1486" type="curve" smooth="yes"/>
      <point x="441" y="1486"/>
      <point x="475" y="1546"/>
      <point x="475" y="1616" type="curve" smooth="yes"/>
      <point x="475" y="1674"/>
      <point x="443" y="1732"/>
      <point x="380" y="1732" type="curve"/>
      <point x="308" y="1732"/>
      <point x="274" y="1666"/>
      <point x="274" y="1600" type="curve" smooth="yes"/>
      <point x="274" y="1536"/>
      <point x="308" y="1486"/>
    </contour>
    <contour>
      <point x="88" y="98" type="line"/>
      <point x="-14" y="80" type="line"/>
      <point x="-14" y="0" type="line"/>
      <point x="365" y="0" type="line"/>
      <point x="365" y="80" type="line"/>
      <point x="224" y="98" type="line"/>
      <point x="304" y="364" type="line"/>
      <point x="786" y="364" type="line"/>
      <point x="866" y="96" type="line"/>
      <point x="728" y="80" type="line"/>
      <point x="728" y="0" type="line"/>
      <point x="1148" y="0" type="line"/>
      <point x="1148" y="80" type="line"/>
      <point x="1045" y="96" type="line"/>
      <point x="651" y="1304" type="line"/>
      <point x="487" y="1304" type="line"/>
    </contour>
    <contour>
      <point x="757" y="460" type="line"/>
      <point x="333" y="460" type="line"/>
      <point x="505" y="1026" type="line"/>
      <point x="546" y="1190" type="line"/>
      <point x="585" y="1030" type="line"/>
    </contour>
  </outline>
</glyph>
<glyph name="che-cy.sc" format="1">
  <advance width="1114"/>
  <outline>
    <contour>
      <point x="740" y="574" type="curve"/>
      <point x="740" y="98" type="line"/>
      <point x="570" y="80" type="line"/>
      <point x="570" y="0" type="line"/>
      <point x="1046" y="0" type="line"/>
      <point x="1046" y="80" type="line"/>
      <point x="901" y="98" type="line"/>
      <point x="901" y="1192" type="line"/>
      <point x="1044" y="1210" type="line"/>
      <point x="1044" y="1292" type="line"/>
      <point x="593" y="1292" type="line"/>
      <point x="593" y="1210" type="line"/>
      <point x="740" y="1192" type="line"/>
      <point x="740" y="666" type="line"/>
      <point x="695" y="638"/>
      <point x="582" y="612"/>
      <point x="498" y="612" type="curve" smooth="yes"/>
      <point x="294" y="612"/>
      <point x="270" y="668"/>
      <point x="270" y="948" type="curve" smooth="yes"/>
      <point x="270" y="1190" type="line"/>
      <point x="412" y="1210" type="line"/>
      <point x="412" y="1292" type="line"/>
      <point x="10" y="1292" type="line"/>
      <point x="10" y="1210" type="line"/>
      <point x="110" y="1190" type="line"/>
      <point x="110" y="896" type="line" smooth="yes"/>
      <point x="110" y="636"/>
      <point x="175" y="500"/>
      <point x="423" y="500" type="curve" smooth="yes"/>
      <point x="521" y="500"/>
      <point x="660" y="526"/>
    </contour>
    <contour>
      <point x="1086" y="0" type="move" name="bottomright"/>
    </contour>
    <contour>
      <point x="561" y="648" type="move" name="center"/>
    </contour>
    <contour>
      <point x="517" y="1272" type="move" name="top"/>
    </contour>
  </outline>
</glyph>
<glyph name="dze-cy.sc" format="1">
  <advance width="967"/>
  <outline>
    <contour>
      <point x="472" y="-20" type="curve" smooth="yes"/>
      <point x="758" y="-20"/>
      <point x="901" y="172"/>
      <point x="901" y="350" type="curve" smooth="yes"/>
      <point x="901" y="560"/>
      <point x="715" y="650"/>
      <point x="562" y="730" type="curve" smooth="yes"/>
      <point x="396" y="814"/>
      <point x="275" y="870"/>
      <point x="275" y="1016" type="curve" smooth="yes"/>
      <point x="275" y="1150"/>
      <point x="357" y="1220"/>
      <point x="508" y="1220" type="curve" smooth="yes"/>
      <point x="597" y="1220"/>
      <point x="673" y="1190"/>
      <point x="692" y="1170" type="curve"/>
      <point x="722" y="956" type="line"/>
      <point x="817" y="956" type="line"/>
      <point x="827" y="1244" type="line"/>
      <point x="779" y="1252"/>
      <point x="665" y="1308"/>
      <point x="511" y="1308" type="curve" smooth="yes"/>
      <point x="274" y="1308"/>
      <point x="119" y="1170"/>
      <point x="119" y="976" type="curve" smooth="yes"/>
      <point x="119" y="748"/>
      <point x="313" y="652"/>
      <point x="445" y="590" type="curve" smooth="yes"/>
      <point x="605" y="516"/>
      <point x="733" y="454"/>
      <point x="733" y="304" type="curve" smooth="yes"/>
      <point x="733" y="162"/>
      <point x="645" y="72"/>
      <point x="477" y="72" type="curve" smooth="yes"/>
      <point x="371" y="72"/>
      <point x="278" y="108"/>
      <point x="245" y="146" type="curve"/>
      <point x="217" y="372" type="line"/>
      <point x="119" y="372" type="line"/>
      <point x="105" y="60" type="line"/>
      <point x="157" y="56"/>
      <point x="285" y="-20"/>
    </contour>
    <contour>
      <point x="484" y="0" type="move" name="bottom"/>
    </contour>
    <contour>
      <point x="482" y="-144" type="move" name="mark0"/>
    </contour>
    <contour>
      <point x="533" y="1272" type="move" name="top"/>
    </contour>
  </outline>
</glyph>
<glyph name="dzhe-cy.sc" format="1">
  <advance width="1301"/>
  <outline>
    <contour>
      <point x="744" y="0" type="curve"/>
      <point x="1222" y="0" type="line"/>
      <point x="1222" y="80" type="line"/>
      <point x="1079" y="96" type="line"/>
      <point x="1079" y="1192" type="line"/>
      <point x="1207" y="1210" type="line"/>
      <point x="1207" y="1292" type="line"/>
      <point x="783" y="1292" type="line"/>
      <point x="783" y="1210" type="line"/>
      <point x="919" y="1192" type="line"/>
      <point x="919" y="94" type="line"/>
      <point x="380" y="94" type="line"/>
      <point x="380" y="1192" type="line"/>
      <point x="533" y="1210" type="line"/>
      <point x="533" y="1292" type="line"/>
      <point x="87" y="1292" type="line"/>
      <point x="87" y="1210" type="line"/>
      <point x="221" y="1192" type="line"/>
      <point x="221" y="98" type="line"/>
      <point x="80" y="80" type="line"/>
      <point x="80" y="0" type="line"/>
      <point x="575" y="0" type="line"/>
      <point x="578" y="-4"/>
      <point x="606" y="-302"/>
      <point x="606" y="-320" type="curve"/>
      <point x="714" y="-320" type="line"/>
      <point x="722" y="-208"/>
      <point x="734" y="-92"/>
    </contour>
  </outline>
</glyph>
<glyph name="eltail-cy.sc" format="1">
  <advance width="1210"/>
  <outline>
    <contour>
      <point x="1160" y="0" type="curve"/>
      <point x="1160" y="96" type="line"/>
      <point x="974" y="96" type="line"/>
      <point x="974" y="1192" type="line"/>
      <point x="1125" y="1210" type="line"/>
      <point x="1125" y="1292" type="line"/>
      <point x="200" y="1292" type="line"/>
      <point x="200" y="1210" type="line"/>
      <point x="384" y="1192" type="line"/>
      <point x="384" y="1044" type="line" smooth="yes"/>
      <point x="384" y="588"/>
      <point x="338" y="324"/>
      <point x="259" y="196" type="curve"/>
      <point x="233" y="148"/>
      <point x="202" y="130"/>
      <point x="163" y="130" type="curve" smooth="yes"/>
      <point x="97" y="130"/>
      <point x="64" y="134"/>
      <point x="42" y="138" type="curve"/>
      <point x="52" y="0" type="line"/>
      <point x="74" y="-4"/>
      <point x="116" y="-10"/>
      <point x="167" y="-10" type="curve" smooth="yes"/>
      <point x="244" y="-10"/>
      <point x="300" y="28"/>
      <point x="346" y="112" type="curve" smooth="yes"/>
      <point x="437" y="280"/>
      <point x="481" y="612"/>
      <point x="481" y="1028" type="curve" smooth="yes"/>
      <point x="481" y="1192" type="line"/>
      <point x="815" y="1192" type="line"/>
      <point x="815" y="98" type="line"/>
      <point x="647" y="80" type="line"/>
      <point x="647" y="0" type="line"/>
      <point x="1021" y="0" type="line"/>
      <point x="1016" y="-20"/>
      <point x="955" y="-304"/>
      <point x="947" y="-320" type="curve"/>
      <point x="1051" y="-320" type="line"/>
      <point x="1058" y="-312"/>
      <point x="1151" y="-12"/>
    </contour>
    <contour>
      <point x="479" y="-144" type="move" name="mark0"/>
    </contour>
  </outline>
</glyph>
<glyph name="endescender-cy.sc" format="1">
  <advance width="1349"/>
  <outline>
    <contour>
      <point x="1295" y="98" type="curve"/>
      <point x="1129" y="98" type="line"/>
      <point x="1129" y="1192" type="line"/>
      <point x="1260" y="1210" type="line"/>
      <point x="1260" y="1292" type="line"/>
      <point x="834" y="1292" type="line"/>
      <point x="834" y="1210" type="line"/>
      <point x="967" y="1192" type="line"/>
      <point x="967" y="714" type="line"/>
      <point x="382" y="714" type="line"/>
      <point x="382" y="1192" type="line"/>
      <point x="521" y="1210" type="line"/>
      <point x="521" y="1292" type="line"/>
      <point x="90" y="1292" type="line"/>
      <point x="90" y="1210" type="line"/>
      <point x="220" y="1192" type="line"/>
      <point x="220" y="96" type="line"/>
      <point x="86" y="80" type="line"/>
      <point x="86" y="0" type="line"/>
      <point x="522" y="0" type="line"/>
      <point x="522" y="80" type="line"/>
      <point x="382" y="96" type="line"/>
      <point x="382" y="612" type="line"/>
      <point x="967" y="612" type="line"/>
      <point x="967" y="98" type="line"/>
      <point x="832" y="80" type="line"/>
      <point x="832" y="0" type="line"/>
      <point x="1131" y="0" type="line"/>
      <point x="1137" y="-20"/>
      <point x="1151" y="-288"/>
      <point x="1152" y="-320" type="curve"/>
      <point x="1253" y="-320" type="line"/>
      <point x="1255" y="-310"/>
      <point x="1295" y="84"/>
    </contour>
    <contour>
      <point x="662" y="-144" type="move" name="mark0"/>
    </contour>
  </outline>
</glyph>
<glyph name="ertick-cy.sc" format="1">
  <advance width="1056"/>
  <outline>
    <contour>
      <point x="302" y="1292" type="curve" smooth="yes"/>
      <point x="93" y="1292" type="line"/>
      <point x="93" y="1210" type="line"/>
      <point x="220" y="1192" type="line"/>
      <point x="220" y="96" type="line"/>
      <point x="84" y="80" type="line"/>
      <point x="84" y="0" type="line"/>
      <point x="605" y="0" type="line"/>
      <point x="605" y="80" type="line"/>
      <point x="382" y="98" type="line"/>
      <point x="382" y="494" type="line"/>
      <point x="397" y="490"/>
      <point x="487" y="486"/>
      <point x="542" y="486" type="curve" smooth="yes"/>
      <point x="609" y="486"/>
      <point x="668" y="496"/>
      <point x="725" y="514" type="curve"/>
      <point x="877" y="316" type="line"/>
      <point x="943" y="366" type="line"/>
      <point x="804" y="550" type="line"/>
      <point x="925" y="620"/>
      <point x="1010" y="750"/>
      <point x="1010" y="936" type="curve" smooth="yes"/>
      <point x="1010" y="1168"/>
      <point x="908" y="1304"/>
      <point x="583" y="1304" type="curve" smooth="yes"/>
      <point x="445" y="1304"/>
      <point x="402" y="1292"/>
    </contour>
    <contour>
      <point x="728" y="642" type="curve"/>
      <point x="611" y="794" type="line"/>
      <point x="544" y="744" type="line"/>
      <point x="658" y="596" type="line"/>
      <point x="619" y="582"/>
      <point x="580" y="576"/>
      <point x="544" y="576" type="curve" smooth="yes"/>
      <point x="476" y="576"/>
      <point x="413" y="578"/>
      <point x="382" y="584" type="curve"/>
      <point x="382" y="1206" type="line"/>
      <point x="423" y="1206"/>
      <point x="470" y="1216"/>
      <point x="545" y="1216" type="curve" smooth="yes"/>
      <point x="743" y="1216"/>
      <point x="840" y="1140"/>
      <point x="840" y="934" type="curve" smooth="yes"/>
      <point x="840" y="784"/>
      <point x="795" y="692"/>
    </contour>
    <contour>
      <point x="542" y="-144" type="move" name="mark0"/>
    </contour>
  </outline>
</glyph>
<glyph name="es-cy.sc" format="1">
  <advance width="1065"/>
  <outline>
    <contour>
      <point x="616" y="-20" type="curve" smooth="yes"/>
      <point x="811" y="-20"/>
      <point x="873" y="42"/>
      <point x="963" y="46" type="curve"/>
      <point x="1002" y="292" type="line"/>
      <point x="906" y="304" type="line"/>
      <point x="841" y="134" type="line"/>
      <point x="801" y="98"/>
      <point x="747" y="70"/>
      <point x="621" y="70" type="curve" smooth="yes"/>
      <point x="363" y="70"/>
      <point x="243" y="346"/>
      <point x="243" y="666" type="curve" smooth="yes"/>
      <point x="243" y="1022"/>
      <point x="403" y="1218"/>
      <point x="612" y="1218" type="curve" smooth="yes"/>
      <point x="728" y="1218"/>
      <point x="807" y="1192"/>
      <point x="834" y="1166" type="curve"/>
      <point x="874" y="954" type="line"/>
      <point x="974" y="954" type="line"/>
      <point x="989" y="1254" type="line"/>
      <point x="922" y="1266"/>
      <point x="789" y="1306"/>
      <point x="640" y="1306" type="curve" smooth="yes"/>
      <point x="311" y="1306"/>
      <point x="58" y="1032"/>
      <point x="58" y="638" type="curve" smooth="yes"/>
      <point x="58" y="238"/>
      <point x="256" y="-20"/>
    </contour>
    <contour>
      <point x="595" y="0" type="move" name="bottom"/>
    </contour>
    <contour>
      <point x="606" y="0" type="move" name="bottomright"/>
    </contour>
    <contour>
      <point x="608" y="-144" type="move" name="mark0"/>
    </contour>
    <contour>
      <point x="600" y="1272" type="move" name="top"/>
    </contour>
  </outline>
</glyph>
<glyph name="ghemiddlehook-cy.sc" format="1">
  <advance width="1117"/>
  <outline>
    <contour>
      <point x="425" y="672" type="curve"/>
      <point x="425" y="1208" type="line"/>
      <point x="794" y="1192" type="line"/>
      <point x="837" y="950" type="line"/>
      <point x="941" y="950" type="line"/>
      <point x="931" y="1292" type="line"/>
      <point x="88" y="1292" type="line"/>
      <point x="88" y="1212" type="line"/>
      <point x="260" y="1190" type="line"/>
      <point x="260" y="98" type="line"/>
      <point x="82" y="80" type="line"/>
      <point x="82" y="0" type="line"/>
      <point x="625" y="0" type="line"/>
      <point x="625" y="80" type="line"/>
      <point x="425" y="98" type="line"/>
      <point x="425" y="586" type="line"/>
      <point x="502" y="624"/>
      <point x="576" y="640"/>
      <point x="662" y="640" type="curve" smooth="yes"/>
      <point x="841" y="640"/>
      <point x="899" y="522"/>
      <point x="899" y="286" type="curve" smooth="yes"/>
      <point x="899" y="-58"/>
      <point x="830" y="-246"/>
      <point x="660" y="-246" type="curve" smooth="yes"/>
      <point x="621" y="-246"/>
      <point x="595" y="-242"/>
      <point x="581" y="-240" type="curve"/>
      <point x="584" y="-330" type="line"/>
      <point x="605" y="-340"/>
      <point x="650" y="-346"/>
      <point x="684" y="-346" type="curve" smooth="yes"/>
      <point x="929" y="-346"/>
      <point x="1063" y="-66"/>
      <point x="1063" y="302" type="curve" smooth="yes"/>
      <point x="1063" y="560"/>
      <point x="992" y="742"/>
      <point x="699" y="742" type="curve" smooth="yes"/>
      <point x="633" y="742"/>
      <point x="488" y="716"/>
    </contour>
  </outline>
</glyph>
<glyph name="hadescender-cy.sc" format="1">
  <advance width="1165"/>
  <outline>
    <contour>
      <point x="1190" y="98" type="curve"/>
      <point x="1029" y="98" type="line"/>
      <point x="665" y="674" type="line"/>
      <point x="996" y="1190" type="line"/>
      <point x="1125" y="1210" type="line"/>
      <point x="1125" y="1292" type="line"/>
      <point x="731" y="1292" type="line"/>
      <point x="731" y="1210" type="line"/>
      <point x="875" y="1192" type="line"/>
      <point x="616" y="736" type="line"/>
      <point x="358" y="1190" type="line"/>
      <point x="516" y="1210" type="line"/>
      <point x="516" y="1292" type="line"/>
      <point x="41" y="1292" type="line"/>
      <point x="41" y="1210" type="line"/>
      <point x="161" y="1190" type="line"/>
      <point x="500" y="650" type="line"/>
      <point x="154" y="96" type="line"/>
      <point x="15" y="80" type="line"/>
      <point x="15" y="0" type="line"/>
      <point x="446" y="0" type="line"/>
      <point x="446" y="80" type="line"/>
      <point x="283" y="96" type="line"/>
      <point x="553" y="586" type="line"/>
      <point x="833" y="98" type="line"/>
      <point x="680" y="80" type="line"/>
      <point x="680" y="0" type="line"/>
      <point x="1028" y="0" type="line"/>
      <point x="1032" y="-12"/>
      <point x="1046" y="-270"/>
      <point x="1048" y="-314" type="curve"/>
      <point x="1146" y="-314" type="line"/>
      <point x="1150" y="-304"/>
      <point x="1190" y="84"/>
    </contour>
    <contour>
      <point x="582" y="-144" type="move" name="mark0"/>
    </contour>
  </outline>
</glyph>
<glyph name="hardsign-cy.sc" format="1">
  <advance width="1335"/>
  <outline>
    <contour>
      <point x="872" y="784" type="curve" smooth="yes"/>
      <point x="662" y="784" type="line"/>
      <point x="662" y="1192" type="line"/>
      <point x="816" y="1212" type="line"/>
      <point x="816" y="1292" type="line"/>
      <point x="84" y="1292" type="line"/>
      <point x="62" y="864" type="line"/>
      <point x="169" y="864" type="line"/>
      <point x="215" y="1192" type="line"/>
      <point x="498" y="1208" type="line"/>
      <point x="498" y="98" type="line"/>
      <point x="281" y="80" type="line"/>
      <point x="281" y="0" type="line"/>
      <point x="587" y="0" type="line" smooth="yes"/>
      <point x="654" y="0"/>
      <point x="815" y="-14"/>
      <point x="854" y="-14" type="curve" smooth="yes"/>
      <point x="1110" y="-14"/>
      <point x="1282" y="130"/>
      <point x="1282" y="406" type="curve" smooth="yes"/>
      <point x="1282" y="644"/>
      <point x="1142" y="784"/>
    </contour>
    <contour>
      <point x="662" y="88" type="curve"/>
      <point x="662" y="688" type="line"/>
      <point x="831" y="688" type="line" smooth="yes"/>
      <point x="1007" y="688"/>
      <point x="1113" y="592"/>
      <point x="1113" y="394" type="curve" smooth="yes"/>
      <point x="1113" y="188"/>
      <point x="1013" y="72"/>
      <point x="827" y="72" type="curve" smooth="yes"/>
      <point x="738" y="72"/>
      <point x="701" y="80"/>
    </contour>
    <contour>
      <point x="613" y="-144" type="move" name="mark0"/>
    </contour>
  </outline>
</glyph>
<glyph name="iebreve-cy.sc" format="1">
  <advance width="1050"/>
  <outline>
    <contour>
      <point x="330" y="1856" type="curve" smooth="yes"/>
      <point x="217" y="1856" type="line"/>
      <point x="217" y="1844"/>
      <point x="215" y="1832"/>
      <point x="215" y="1822" type="curve" smooth="yes"/>
      <point x="215" y="1616"/>
      <point x="330" y="1464"/>
      <point x="533" y="1464" type="curve" smooth="yes"/>
      <point x="740" y="1464"/>
      <point x="847" y="1614"/>
      <point x="847" y="1822" type="curve" smooth="yes"/>
      <point x="847" y="1832"/>
      <point x="846" y="1844"/>
      <point x="846" y="1856" type="curve"/>
      <point x="733" y="1856" type="line" smooth="yes"/>
      <point x="710" y="1856"/>
      <point x="707" y="1822"/>
      <point x="707" y="1788" type="curve" smooth="yes"/>
      <point x="707" y="1682"/>
      <point x="666" y="1560"/>
      <point x="535" y="1560" type="curve" smooth="yes"/>
      <point x="400" y="1560"/>
      <point x="356" y="1682"/>
      <point x="356" y="1788" type="curve" smooth="yes"/>
      <point x="356" y="1822"/>
      <point x="352" y="1856"/>
    </contour>
    <contour>
      <point x="204" y="96" type="line"/>
      <point x="67" y="80" type="line"/>
      <point x="67" y="0" type="line"/>
      <point x="963" y="0" type="line"/>
      <point x="1010" y="300" type="line"/>
      <point x="920" y="328" type="line"/>
      <point x="835" y="108" type="line"/>
      <point x="366" y="94" type="line"/>
      <point x="366" y="620" type="line"/>
      <point x="645" y="614" type="line"/>
      <point x="666" y="466" type="line"/>
      <point x="753" y="466" type="line"/>
      <point x="753" y="858" type="line"/>
      <point x="666" y="858" type="line"/>
      <point x="645" y="714" type="line"/>
      <point x="366" y="710" type="line"/>
      <point x="366" y="1208" type="line"/>
      <point x="778" y="1198" type="line"/>
      <point x="823" y="1030" type="line"/>
      <point x="912" y="1030" type="line"/>
      <point x="889" y="1292" type="line"/>
      <point x="70" y="1292" type="line"/>
      <point x="70" y="1210" type="line"/>
      <point x="204" y="1192" type="line"/>
    </contour>
  </outline>
</glyph>
<glyph name="izhitsa-cy.sc" format="1">
  <advance width="1182"/>
  <outline>
    <contour>
      <point x="873" y="1080" type="curve"/>
      <point x="663" y="374" type="line"/>
      <point x="609" y="146" type="line"/>
      <point x="549" y="376" type="line"/>
      <point x="289" y="1192" type="line"/>
      <point x="430" y="1210" type="line"/>
      <point x="430" y="1292" type="line"/>
      <point x="17" y="1292" type="line"/>
      <point x="17" y="1210" type="line"/>
      <point x="115" y="1192" type="line"/>
      <point x="523" y="-14" type="line"/>
      <point x="652" y="-14" type="line"/>
      <point x="966" y="974" type="line"/>
      <point x="1009" y="1152"/>
      <point x="1088" y="1178"/>
      <point x="1160" y="1178" type="curve" smooth="yes"/>
      <point x="1167" y="1178"/>
      <point x="1173" y="1178"/>
      <point x="1173" y="1178" type="curve"/>
      <point x="1173" y="1284" type="line"/>
      <point x="1164" y="1288"/>
      <point x="1143" y="1296"/>
      <point x="1092" y="1296" type="curve" smooth="yes"/>
      <point x="1012" y="1296"/>
      <point x="909" y="1246"/>
    </contour>
  </outline>
</glyph>
<glyph name="ka-cy.sc" format="1">
  <advance width="1144"/>
  <outline>
    <contour>
      <point x="624" y="672" type="curve"/>
      <point x="982" y="1192" type="line"/>
      <point x="1108" y="1210" type="line"/>
      <point x="1108" y="1292" type="line"/>
      <point x="716" y="1292" type="line"/>
      <point x="716" y="1210" type="line"/>
      <point x="853" y="1192" type="line"/>
      <point x="519" y="680" type="line"/>
      <point x="377" y="680" type="line"/>
      <point x="377" y="1192" type="line"/>
      <point x="511" y="1210" type="line"/>
      <point x="511" y="1292" type="line"/>
      <point x="87" y="1292" type="line"/>
      <point x="87" y="1210" type="line"/>
      <point x="218" y="1192" type="line"/>
      <point x="218" y="98" type="line"/>
      <point x="87" y="82" type="line"/>
      <point x="87" y="0" type="line"/>
      <point x="520" y="0" type="line"/>
      <point x="520" y="80" type="line"/>
      <point x="377" y="98" type="line"/>
      <point x="377" y="600" type="line"/>
      <point x="485" y="600" type="line" smooth="yes"/>
      <point x="625" y="600"/>
      <point x="823" y="0"/>
      <point x="938" y="0" type="curve"/>
      <point x="1129" y="0" type="line"/>
      <point x="1129" y="80" type="line"/>
      <point x="1067" y="98" type="line" smooth="yes"/>
      <point x="978" y="124"/>
      <point x="789" y="604"/>
    </contour>
    <contour>
      <point x="1108" y="0" type="move" name="bottomright"/>
    </contour>
    <contour>
      <point x="572" y="648" type="move" name="center"/>
    </contour>
    <contour>
      <point x="572" y="1272" type="move" name="top"/>
    </contour>
  </outline>
</glyph>
<glyph name="kadescender-cy.sc" format="1">
  <advance width="1147"/>
  <outline>
    <contour>
      <point x="619" y="672" type="curve"/>
      <point x="977" y="1192" type="line"/>
      <point x="1103" y="1210" type="line"/>
      <point x="1103" y="1292" type="line"/>
      <point x="711" y="1292" type="line"/>
      <point x="711" y="1210" type="line"/>
      <point x="848" y="1192" type="line"/>
      <point x="514" y="680" type="line"/>
      <point x="372" y="680" type="line"/>
      <point x="372" y="1192" type="line"/>
      <point x="506" y="1210" type="line"/>
      <point x="506" y="1292" type="line"/>
      <point x="82" y="1292" type="line"/>
      <point x="82" y="1210" type="line"/>
      <point x="213" y="1192" type="line"/>
      <point x="213" y="98" type="line"/>
      <point x="82" y="82" type="line"/>
      <point x="82" y="0" type="line"/>
      <point x="515" y="0" type="line"/>
      <point x="515" y="80" type="line"/>
      <point x="372" y="98" type="line"/>
      <point x="372" y="600" type="line"/>
      <point x="480" y="600" type="line" smooth="yes"/>
      <point x="620" y="600"/>
      <point x="818" y="0"/>
      <point x="933" y="0" type="curve" smooth="yes"/>
      <point x="991" y="0" type="line"/>
      <point x="997" y="-16"/>
      <point x="1011" y="-288"/>
      <point x="1011" y="-320" type="curve"/>
      <point x="1111" y="-320" type="line"/>
      <point x="1124" y="-208"/>
      <point x="1143" y="-22"/>
      <point x="1154" y="98" type="curve"/>
      <point x="1061" y="98" type="line"/>
      <point x="971" y="132"/>
      <point x="783" y="604"/>
    </contour>
  </outline>
</glyph>
<glyph name="kastroke-cy.sc" format="1">
  <advance width="1141"/>
  <outline>
    <contour>
      <point x="625" y="672" type="curve"/>
      <point x="979" y="1192" type="line"/>
      <point x="1104" y="1210" type="line"/>
      <point x="1104" y="1292" type="line"/>
      <point x="712" y="1292" type="line"/>
      <point x="712" y="1210" type="line"/>
      <point x="850" y="1192" type="line"/>
      <point x="521" y="680" type="line"/>
      <point x="373" y="680" type="line"/>
      <point x="373" y="910" type="line"/>
      <point x="515" y="910" type="line"/>
      <point x="515" y="1000" type="line"/>
      <point x="373" y="1000" type="line"/>
      <point x="373" y="1192" type="line"/>
      <point x="508" y="1210" type="line"/>
      <point x="508" y="1292" type="line"/>
      <point x="83" y="1292" type="line"/>
      <point x="83" y="1210" type="line"/>
      <point x="215" y="1192" type="line"/>
      <point x="215" y="1000" type="line"/>
      <point x="85" y="1000" type="line"/>
      <point x="85" y="910" type="line"/>
      <point x="215" y="910" type="line"/>
      <point x="215" y="98" type="line"/>
      <point x="83" y="82" type="line"/>
      <point x="83" y="0" type="line"/>
      <point x="516" y="0" type="line"/>
      <point x="516" y="80" type="line"/>
      <point x="373" y="98" type="line"/>
      <point x="373" y="600" type="line"/>
      <point x="487" y="600" type="line" smooth="yes"/>
      <point x="626" y="600"/>
      <point x="819" y="0"/>
      <point x="934" y="0" type="curve" smooth="yes"/>
      <point x="1125" y="0" type="line"/>
      <point x="1125" y="80" type="line"/>
      <point x="1064" y="98" type="line" smooth="yes"/>
      <point x="975" y="124"/>
      <point x="789" y="604"/>
    </contour>
    <contour>
      <point x="594" y="-144" type="move" name="mark0"/>
    </contour>
  </outline>
</glyph>
<glyph name="kaverticalstroke-cy.sc" format="1">
  <advance width="1217"/>
  <outline>
    <contour>
      <point x="756" y="678" type="curve"/>
      <point x="1053" y="1192" type="line"/>
      <point x="1176" y="1210" type="line"/>
      <point x="1176" y="1292" type="line"/>
      <point x="785" y="1292" type="line"/>
      <point x="785" y="1210" type="line"/>
      <point x="924" y="1190" type="line"/>
      <point x="649" y="694" type="line"/>
      <point x="588" y="694" type="line"/>
      <point x="588" y="964" type="line"/>
      <point x="502" y="964" type="line"/>
      <point x="502" y="694" type="line"/>
      <point x="377" y="694" type="line"/>
      <point x="377" y="1192" type="line"/>
      <point x="511" y="1210" type="line"/>
      <point x="511" y="1292" type="line"/>
      <point x="87" y="1292" type="line"/>
      <point x="87" y="1210" type="line"/>
      <point x="218" y="1192" type="line"/>
      <point x="218" y="98" type="line"/>
      <point x="87" y="82" type="line"/>
      <point x="87" y="0" type="line"/>
      <point x="520" y="0" type="line"/>
      <point x="520" y="80" type="line"/>
      <point x="377" y="98" type="line"/>
      <point x="377" y="602" type="line"/>
      <point x="502" y="602" type="line"/>
      <point x="502" y="314" type="line"/>
      <point x="588" y="314" type="line"/>
      <point x="588" y="596" type="line"/>
      <point x="623" y="596" type="line" smooth="yes"/>
      <point x="755" y="596"/>
      <point x="918" y="0"/>
      <point x="1040" y="0" type="curve" smooth="yes"/>
      <point x="1223" y="0" type="line"/>
      <point x="1223" y="80" type="line"/>
      <point x="1161" y="100" type="line" smooth="yes"/>
      <point x="1078" y="128"/>
      <point x="910" y="586"/>
    </contour>
  </outline>
</glyph>
<glyph name="komidje-cy.sc" format="1">
  <advance width="1510"/>
  <outline>
    <contour>
      <point x="1361" y="290" type="curve" smooth="yes"/>
      <point x="1361" y="602" type="line"/>
      <point x="1478" y="622" type="line"/>
      <point x="1478" y="710" type="line"/>
      <point x="1070" y="710" type="line"/>
      <point x="1070" y="622" type="line"/>
      <point x="1199" y="602" type="line"/>
      <point x="1199" y="318" type="line" smooth="yes"/>
      <point x="1199" y="158"/>
      <point x="1150" y="78"/>
      <point x="1005" y="78" type="curve" smooth="yes"/>
      <point x="876" y="78"/>
      <point x="833" y="154"/>
      <point x="833" y="322" type="curve" smooth="yes"/>
      <point x="833" y="1198" type="line"/>
      <point x="964" y="1222" type="line"/>
      <point x="964" y="1292" type="line"/>
      <point x="508" y="1292" type="line"/>
      <point x="508" y="1222" type="line"/>
      <point x="673" y="1198" type="line"/>
      <point x="673" y="770" type="line"/>
      <point x="621" y="776"/>
      <point x="541" y="786"/>
      <point x="478" y="786" type="curve" smooth="yes"/>
      <point x="221" y="786"/>
      <point x="51" y="640"/>
      <point x="51" y="368" type="curve" smooth="yes"/>
      <point x="51" y="128"/>
      <point x="199" y="-14"/>
      <point x="459" y="-14" type="curve" smooth="yes"/>
      <point x="558" y="-14"/>
      <point x="666" y="0"/>
      <point x="763" y="58" type="curve"/>
      <point x="817" y="12"/>
      <point x="895" y="-14"/>
      <point x="1001" y="-14" type="curve" smooth="yes"/>
      <point x="1227" y="-14"/>
      <point x="1361" y="100"/>
    </contour>
    <contour>
      <point x="673" y="682" type="curve"/>
      <point x="673" y="298" type="line" smooth="yes"/>
      <point x="673" y="256"/>
      <point x="676" y="202"/>
      <point x="694" y="156" type="curve"/>
      <point x="647" y="106"/>
      <point x="561" y="84"/>
      <point x="507" y="84" type="curve" smooth="yes"/>
      <point x="324" y="84"/>
      <point x="221" y="186"/>
      <point x="221" y="376" type="curve" smooth="yes"/>
      <point x="221" y="592"/>
      <point x="326" y="696"/>
      <point x="503" y="696" type="curve" smooth="yes"/>
      <point x="585" y="696"/>
      <point x="626" y="690"/>
    </contour>
  </outline>
</glyph>
<glyph name="kominje-cy.sc" format="1">
  <advance width="1763"/>
  <outline>
    <contour>
      <point x="1086" y="322" type="curve" smooth="yes"/>
      <point x="1086" y="1192" type="line"/>
      <point x="1231" y="1214" type="line"/>
      <point x="1231" y="1292" type="line"/>
      <point x="777" y="1292" type="line"/>
      <point x="777" y="1214" type="line"/>
      <point x="924" y="1192" type="line"/>
      <point x="924" y="714" type="line"/>
      <point x="380" y="714" type="line"/>
      <point x="380" y="1192" type="line"/>
      <point x="521" y="1210" type="line"/>
      <point x="521" y="1292" type="line"/>
      <point x="90" y="1292" type="line"/>
      <point x="90" y="1210" type="line"/>
      <point x="220" y="1192" type="line"/>
      <point x="220" y="96" type="line"/>
      <point x="85" y="80" type="line"/>
      <point x="85" y="0" type="line"/>
      <point x="519" y="0" type="line"/>
      <point x="519" y="80" type="line"/>
      <point x="380" y="96" type="line"/>
      <point x="380" y="612" type="line"/>
      <point x="924" y="612" type="line"/>
      <point x="926" y="298" type="line" smooth="yes"/>
      <point x="927" y="94"/>
      <point x="1035" y="-14"/>
      <point x="1252" y="-14" type="curve" smooth="yes"/>
      <point x="1480" y="-14"/>
      <point x="1612" y="100"/>
      <point x="1612" y="290" type="curve" smooth="yes"/>
      <point x="1612" y="602" type="line"/>
      <point x="1731" y="622" type="line"/>
      <point x="1731" y="712" type="line"/>
      <point x="1323" y="712" type="line"/>
      <point x="1323" y="622" type="line"/>
      <point x="1451" y="602" type="line"/>
      <point x="1451" y="318" type="line" smooth="yes"/>
      <point x="1451" y="158"/>
      <point x="1402" y="78"/>
      <point x="1258" y="78" type="curve" smooth="yes"/>
      <point x="1129" y="78"/>
      <point x="1086" y="154"/>
    </contour>
  </outline>
</glyph>
<glyph name="obarreddieresis-cy.sc" format="1">
  <advance width="1158"/>
  <outline>
    <contour>
      <point x="773" y="1486" type="curve"/>
      <point x="850" y="1486"/>
      <point x="884" y="1546"/>
      <point x="884" y="1616" type="curve" smooth="yes"/>
      <point x="884" y="1674"/>
      <point x="851" y="1732"/>
      <point x="788" y="1732" type="curve" smooth="yes"/>
      <point x="717" y="1732"/>
      <point x="682" y="1666"/>
      <point x="682" y="1600" type="curve" smooth="yes"/>
      <point x="682" y="1536"/>
      <point x="717" y="1486"/>
    </contour>
    <contour>
      <point x="398" y="1486" type="curve" smooth="yes"/>
      <point x="474" y="1486"/>
      <point x="508" y="1546"/>
      <point x="508" y="1616" type="curve" smooth="yes"/>
      <point x="508" y="1674"/>
      <point x="475" y="1732"/>
      <point x="412" y="1732" type="curve"/>
      <point x="340" y="1732"/>
      <point x="307" y="1666"/>
      <point x="307" y="1600" type="curve" smooth="yes"/>
      <point x="307" y="1536"/>
      <point x="340" y="1486"/>
    </contour>
    <contour>
      <point x="593" y="1308" type="curve" smooth="yes"/>
      <point x="285" y="1308"/>
      <point x="49" y="1048"/>
      <point x="49" y="638" type="curve" smooth="yes"/>
      <point x="49" y="248"/>
      <point x="228" y="-26"/>
      <point x="568" y="-20" type="curve" smooth="yes"/>
      <point x="874" y="-14"/>
      <point x="1108" y="252"/>
      <point x="1108" y="660" type="curve" smooth="yes"/>
      <point x="1108" y="1050"/>
      <point x="933" y="1308"/>
    </contour>
    <contour>
      <point x="229" y="606" type="curve"/>
      <point x="926" y="606" type="line"/>
      <point x="913" y="250"/>
      <point x="774" y="68"/>
      <point x="576" y="68" type="curve" smooth="yes"/>
      <point x="362" y="68"/>
      <point x="237" y="284"/>
    </contour>
    <contour>
      <point x="926" y="694" type="curve"/>
      <point x="229" y="694" type="line"/>
      <point x="241" y="1038"/>
      <point x="375" y="1220"/>
      <point x="581" y="1220" type="curve" smooth="yes"/>
      <point x="794" y="1220"/>
      <point x="916" y="1014"/>
    </contour>
  </outline>
</glyph>
<glyph name="semisoftsign-cy.sc" format="1">
  <advance width="1058"/>
  <outline>
    <contour>
      <point x="380" y="784" type="curve"/>
      <point x="380" y="940" type="line"/>
      <point x="587" y="940" type="line"/>
      <point x="587" y="1026" type="line"/>
      <point x="380" y="1026" type="line"/>
      <point x="380" y="1192" type="line"/>
      <point x="538" y="1214" type="line"/>
      <point x="538" y="1292" type="line"/>
      <point x="87" y="1292" type="line"/>
      <point x="87" y="1214" type="line"/>
      <point x="220" y="1192" type="line"/>
      <point x="220" y="1026" type="line"/>
      <point x="57" y="1026" type="line"/>
      <point x="57" y="940" type="line"/>
      <point x="220" y="940" type="line"/>
      <point x="220" y="96" type="line"/>
      <point x="84" y="80" type="line"/>
      <point x="84" y="0" type="line"/>
      <point x="301" y="0" type="line" smooth="yes"/>
      <point x="382" y="0"/>
      <point x="520" y="-14"/>
      <point x="572" y="-14" type="curve" smooth="yes"/>
      <point x="824" y="-14"/>
      <point x="1004" y="132"/>
      <point x="1004" y="406" type="curve" smooth="yes"/>
      <point x="1004" y="644"/>
      <point x="860" y="786"/>
      <point x="596" y="786" type="curve"/>
      <point x="531" y="786"/>
      <point x="443" y="784"/>
    </contour>
    <contour>
      <point x="380" y="90" type="curve"/>
      <point x="380" y="688" type="line"/>
      <point x="433" y="688"/>
      <point x="498" y="688"/>
      <point x="550" y="688" type="curve" smooth="yes"/>
      <point x="727" y="688"/>
      <point x="833" y="594"/>
      <point x="833" y="396" type="curve" smooth="yes"/>
      <point x="833" y="188"/>
      <point x="731" y="76"/>
      <point x="548" y="76" type="curve" smooth="yes"/>
      <point x="463" y="76"/>
      <point x="425" y="82"/>
    </contour>
  </outline>
</glyph>
<glyph name="tedescender-cy.sc" format="1">
  <advance width="1170"/>
  <outline>
    <contour>
      <point x="937" y="98" type="curve"/>
      <point x="669" y="98" type="line"/>
      <point x="669" y="1206" type="line"/>
      <point x="959" y="1196" type="line"/>
      <point x="1008" y="838" type="line"/>
      <point x="1106" y="838" type="line"/>
      <point x="1088" y="1292" type="line"/>
      <point x="83" y="1292" type="line"/>
      <point x="56" y="838" type="line"/>
      <point x="159" y="838" type="line"/>
      <point x="214" y="1196" type="line"/>
      <point x="500" y="1206" type="line"/>
      <point x="500" y="98" type="line"/>
      <point x="290" y="80" type="line"/>
      <point x="290" y="0" type="line"/>
      <point x="779" y="0" type="line"/>
      <point x="786" y="-100"/>
      <point x="790" y="-220"/>
      <point x="795" y="-320" type="curve"/>
      <point x="893" y="-320" type="line"/>
      <point x="908" y="-194"/>
      <point x="924" y="-52"/>
    </contour>
  </outline>
</glyph>
<glyph name="tse-cy.sc" format="1">
  <advance width="1298"/>
  <outline>
    <contour>
      <point x="1253" y="98" type="curve"/>
      <point x="1064" y="98" type="line"/>
      <point x="1064" y="1192" type="line"/>
      <point x="1197" y="1210" type="line"/>
      <point x="1197" y="1292" type="line"/>
      <point x="778" y="1292" type="line"/>
      <point x="778" y="1210" type="line"/>
      <point x="902" y="1192" type="line"/>
      <point x="902" y="96" type="line"/>
      <point x="380" y="96" type="line"/>
      <point x="380" y="1192" type="line"/>
      <point x="541" y="1210" type="line"/>
      <point x="541" y="1292" type="line"/>
      <point x="84" y="1292" type="line"/>
      <point x="84" y="1210" type="line"/>
      <point x="221" y="1192" type="line"/>
      <point x="221" y="100" type="line"/>
      <point x="68" y="80" type="line"/>
      <point x="68" y="0" type="line"/>
      <point x="1089" y="0" type="line"/>
      <point x="1095" y="-20"/>
      <point x="1111" y="-288"/>
      <point x="1111" y="-320" type="curve"/>
      <point x="1211" y="-320" type="line"/>
      <point x="1214" y="-314"/>
      <point x="1253" y="86"/>
    </contour>
  </outline>
</glyph>
<glyph name="umacron-cy.sc" format="1">
  <advance width="1086"/>
  <outline>
    <contour>
      <point x="772" y="1626" type="line"/>
      <point x="319" y="1626" type="line"/>
      <point x="319" y="1504" type="line"/>
      <point x="772" y="1504" type="line"/>
    </contour>
    <contour>
      <point x="640" y="266" type="curve"/>
      <point x="986" y="1192" type="line"/>
      <point x="1069" y="1210" type="line"/>
      <point x="1069" y="1292" type="line"/>
      <point x="724" y="1292" type="line"/>
      <point x="724" y="1210" type="line"/>
      <point x="866" y="1192" type="line"/>
      <point x="655" y="574" type="line"/>
      <point x="601" y="410" type="line"/>
      <point x="550" y="572" type="line"/>
      <point x="282" y="1192" type="line"/>
      <point x="444" y="1210" type="line"/>
      <point x="444" y="1292" type="line"/>
      <point x="17" y="1292" type="line"/>
      <point x="17" y="1210" type="line"/>
      <point x="105" y="1192" type="line"/>
      <point x="517" y="280" type="line"/>
      <point x="481" y="166"/>
      <point x="442" y="124"/>
      <point x="343" y="124" type="curve" smooth="yes"/>
      <point x="325" y="124"/>
      <point x="238" y="126"/>
      <point x="229" y="128" type="curve"/>
      <point x="229" y="10" type="line"/>
      <point x="262" y="-6"/>
      <point x="315" y="-20"/>
      <point x="373" y="-20" type="curve" smooth="yes"/>
      <point x="545" y="-20"/>
      <point x="596" y="162"/>
    </contour>
  </outline>
</glyph>
<glyph name="ustraitstroke-cy.sc" format="1">
  <advance width="1115"/>
  <outline>
    <contour>
      <point x="483" y="98" type="line"/>
      <point x="305" y="80" type="line"/>
      <point x="305" y="0" type="line"/>
      <point x="832" y="0" type="line"/>
      <point x="832" y="80" type="line"/>
      <point x="650" y="98" type="line"/>
      <point x="650" y="504" type="line"/>
      <point x="992" y="1192" type="line"/>
      <point x="1098" y="1210" type="line"/>
      <point x="1098" y="1292" type="line"/>
      <point x="733" y="1292" type="line"/>
      <point x="733" y="1210" type="line"/>
      <point x="868" y="1192" type="line"/>
      <point x="645" y="712" type="line"/>
      <point x="588" y="578" type="line"/>
      <point x="533" y="712" type="line"/>
      <point x="299" y="1192" type="line"/>
      <point x="429" y="1210" type="line"/>
      <point x="429" y="1292" type="line"/>
      <point x="17" y="1292" type="line"/>
      <point x="17" y="1210" type="line"/>
      <point x="115" y="1190" type="line"/>
      <point x="483" y="502" type="line"/>
    </contour>
    <contour>
      <point x="902" y="540" type="line"/>
      <point x="245" y="540" type="line"/>
      <point x="245" y="424" type="line"/>
      <point x="902" y="424" type="line"/>
    </contour>
    <contour>
      <point x="574" y="484" type="move" name="_center"/>
    </contour>
    <contour>
      <point x="557" y="0" type="move" name="bottom"/>
    </contour>
    <contour>
      <point x="574" y="484" type="move" name="center"/>
    </contour>
    <contour>
      <point x="521" y="-144" type="move" name="mark0"/>
    </contour>
    <contour>
      <point x="564" y="1292" type="move" name="top"/>
    </contour>
    <contour>
      <point x="67" y="1292" type="move" name="topleft"/>
    </contour>
  </outline>
</glyph>
<glyph name="we-cy.sc" format="1">
  <advance width="1657"/>
  <outline>
    <contour>
      <point x="-11" y="1210" type="line"/>
      <point x="99" y="1190" type="line"/>
      <point x="444" y="-8" type="line"/>
      <point x="588" y="-8" type="line"/>
      <point x="834" y="880" type="line"/>
      <point x="1086" y="-8" type="line"/>
      <point x="1237" y="-8" type="line"/>
      <point x="1561" y="1192" type="line"/>
      <point x="1668" y="1210" type="line"/>
      <point x="1668" y="1292" type="line"/>
      <point x="1283" y="1292" type="line"/>
      <point x="1283" y="1210" type="line"/>
      <point x="1447" y="1192" type="line"/>
      <point x="1239" y="374" type="line"/>
      <point x="1191" y="96" type="line"/>
      <point x="1134" y="374" type="line"/>
      <point x="911" y="1192" type="line"/>
      <point x="1071" y="1210" type="line"/>
      <point x="1071" y="1292" type="line"/>
      <point x="625" y="1292" type="line"/>
      <point x="625" y="1210" type="line"/>
      <point x="741" y="1192" type="line"/>
      <point x="785" y="1044" type="line"/>
      <point x="597" y="374" type="line"/>
      <point x="541" y="116" type="line"/>
      <point x="492" y="374" type="line"/>
      <point x="265" y="1192" type="line"/>
      <point x="419" y="1210" type="line"/>
      <point x="419" y="1292" type="line"/>
      <point x="-11" y="1292" type="line"/>
    </contour>
    <contour>
      <point x="831" y="0" type="move" name="bottom"/>
    </contour>
    <contour>
      <point x="802" y="-144" type="move" name="mark0"/>
    </contour>
    <contour>
      <point x="838" y="1272" type="move" name="top"/>
    </contour>
  </outline>
</glyph>
<glyph name="zhebreve-cy.sc" format="1">
  <advance width="1692"/>
  <outline>
    <contour>
      <point x="644" y="1856" type="curve" smooth="yes"/>
      <point x="531" y="1856" type="line"/>
      <point x="531" y="1844"/>
      <point x="530" y="1832"/>
      <point x="530" y="1822" type="curve" smooth="yes"/>
      <point x="530" y="1616"/>
      <point x="644" y="1464"/>
      <point x="847" y="1464" type="curve" smooth="yes"/>
      <point x="1055" y="1464"/>
      <point x="1162" y="1614"/>
      <point x="1162" y="1822" type="curve" smooth="yes"/>
      <point x="1162" y="1832"/>
      <point x="1160" y="1844"/>
      <point x="1160" y="1856" type="curve"/>
      <point x="1047" y="1856" type="line" smooth="yes"/>
      <point x="1025" y="1856"/>
      <point x="1021" y="1822"/>
      <point x="1021" y="1788" type="curve" smooth="yes"/>
      <point x="1021" y="1682"/>
      <point x="980" y="1560"/>
      <point x="849" y="1560" type="curve" smooth="yes"/>
      <point x="714" y="1560"/>
      <point x="670" y="1682"/>
      <point x="670" y="1788" type="curve" smooth="yes"/>
      <point x="670" y="1822"/>
      <point x="667" y="1856"/>
    </contour>
    <contour>
      <point x="1171" y="668" type="curve"/>
      <point x="1527" y="1192" type="line"/>
      <point x="1655" y="1210" type="line"/>
      <point x="1655" y="1292" type="line"/>
      <point x="1266" y="1292" type="line"/>
      <point x="1266" y="1210" type="line"/>
      <point x="1394" y="1190" type="line"/>
      <point x="1068" y="680" type="line"/>
      <point x="924" y="680" type="line"/>
      <point x="924" y="1192" type="line"/>
      <point x="1063" y="1210" type="line"/>
      <point x="1063" y="1292" type="line"/>
      <point x="634" y="1292" type="line"/>
      <point x="634" y="1210" type="line"/>
      <point x="770" y="1192" type="line"/>
      <point x="770" y="680" type="line"/>
      <point x="625" y="680" type="line"/>
      <point x="296" y="1192" type="line"/>
      <point x="426" y="1210" type="line"/>
      <point x="426" y="1292" type="line"/>
      <point x="38" y="1292" type="line"/>
      <point x="38" y="1210" type="line"/>
      <point x="164" y="1192" type="line"/>
      <point x="520" y="672" type="line"/>
      <point x="355" y="600"/>
      <point x="169" y="122"/>
      <point x="81" y="98" type="curve" smooth="yes"/>
      <point x="16" y="80" type="line"/>
      <point x="16" y="0" type="line"/>
      <point x="200" y="0" type="line" smooth="yes"/>
      <point x="316" y="0"/>
      <point x="523" y="600"/>
      <point x="661" y="600" type="curve" smooth="yes"/>
      <point x="770" y="600" type="line"/>
      <point x="770" y="98" type="line"/>
      <point x="632" y="80" type="line"/>
      <point x="632" y="0" type="line"/>
      <point x="1066" y="0" type="line"/>
      <point x="1066" y="80" type="line"/>
      <point x="924" y="98" type="line"/>
      <point x="924" y="600" type="line"/>
      <point x="1031" y="600" type="line" smooth="yes"/>
      <point x="1170" y="600"/>
      <point x="1374" y="0"/>
      <point x="1490" y="0" type="curve"/>
      <point x="1677" y="0" type="line"/>
      <point x="1677" y="80" type="line"/>
      <point x="1611" y="98" type="line" smooth="yes"/>
      <point x="1522" y="122"/>
      <point x="1336" y="596"/>
    </contour>
  </outline>
</glyph>
